<svg width="389" height="390" xmlns="http://www.w3.org/2000/svg" xmlns:xlink="http://www.w3.org/1999/xlink" xml:space="preserve" overflow="hidden"><defs><clipPath id="clip0"><rect x="1392" y="1155" width="389" height="390"/></clipPath></defs><g clip-path="url(#clip0)" transform="translate(-1392 -1155)"><path d="M1392 1350C1392 1242.3 1479.08 1155 1586.5 1155 1693.92 1155 1781 1242.3 1781 1350 1781 1457.7 1693.92 1545 1586.5 1545 1479.08 1545 1392 1457.7 1392 1350Z" fill-rule="evenodd"/><path d="M1476 1285 1501.68 1285 1501.68 1336.15 1560.14 1336.15 1560.14 1285 1586 1285 1586 1415 1560.14 1415 1560.14 1359.06 1501.68 1359.06 1501.68 1415 1476 1415 1476 1285Z" fill="#FFFFFF" fill-rule="evenodd"/><path d="M1613 1285 1698.04 1285 1698.04 1307.38 1638.85 1307.38 1638.85 1337.92 1691.8 1337.92 1691.8 1360.12 1638.85 1360.12 1638.85 1392.45 1700 1392.45 1700 1415 1613 1415 1613 1285Z" fill="#FFFFFF" fill-rule="evenodd"/></g></svg>